 FULL_INFOS


SOURCE -- DVD


Complete name : Bad Boy Bubby 1993.DVDRip.DivX . NVEE.divx
Format : AVI 
Format/Info : Audio Video Interleave 
File size : 1.32 GiB 
Duration : 1h 47mn 
Overall bit rate : 1 759 Kbps 

Video 

ID : 0 
Format : MPEG-4 Visual 
Format settings, BVOP : 1 
Format settings, QPel : No 
Format settings, GMC : No warppoints 
Format settings, Matrix : Default (H.263) 
Muxing mode : Packed bitstream 
Codec ID : DX50 
Codec ID/Hint : DivX 5 
Duration : 1h 47mn 
Bit rate : 1 301 Kbps 
Width : 720 pixels 
Height : 304 pixels 
Display aspect ratio : 2.35:1 
Frame rate : 25.000 fps 
Color space : YUV 
Chroma subsampling : 4:2:0 
Bit depth : 8 bits 
Scan type : Progressive 
Compression mode : Lossy 
Bits/(Pixel*Frame) : 0.238 
Stream size : 999 MiB (74%) 
Title : Video  
Writing library : DivX 6.8.5 (UTC 2009-08-20) 

Audio 

ID : 1 
Format : AC-3 
Format/Info : Audio Coding 3 
Mode extension : CM (complete main) 
Format settings, Endianness : Big 
Codec ID : 2000 
Duration : 1h 47mn 
Bit rate mode : Constant 
Bit rate : 448 Kbps 
Channel(s) : 6 channels 
Channel positions : Front: L C R, Side: L R, LFE 
Sampling rate : 48.0 KHz 
Bit depth : 16 bits 
Compression mode : Lossy 
Stream size : 344 MiB (25%) 
Alignment : Split accross interleaves 
Interleave, duration : 40 ms (1.00 video frame) 
Interleave, preload duration : 500 ms 
Title : Audio 

Subtitle -- Finnish


PLOT 

Bubby is a 35-year-old man who has never set foot outside his mother's dingy apartment in the back of a printing press in an industrial ares of Adelaide-Australia. In addition to beating and sexually abusing him, she confines him to the apartment, telling him that the air outside is poisonous and warning him that he will die if he tries to leave. Bubby eventually escapes, joins up with a rock band, and embarks on a journey of self-discovery and shocking mayhem.


PLEASE SEED !!!

